@startuml command
class Client{

}


class Invoker{
    setCommand()
}

Interface Command
{
    execute()
    undo()
}

class ConcreteCommand
{
    execute()
    undo()
}

class Receiver()
{
    action()
}


class ConcreteCommand implements Command
Command *-- Invoker
Receiver *-- Client
Receiver *-- ConcreteCommand
ConcreteCommand *-- Client

@enduml